<?xml version="1.0" encoding="utf-8"?>
<svg width="1800px" height="1200px" viewBox="0 0 1800 1200" version="1.1" xmlns:xlink="http://www.w3.org/1999/xlink" xmlns="http://www.w3.org/2000/svg">
  <desc>Created by MYIL</desc>
  <defs>
    <rect width="1800" height="1200" id="artboard_1" />
    <clipPath id="clip_1">
      <use xlink:href="#artboard_1" clip-rule="evenodd" />
    </clipPath>
  </defs>
  <g id="限界" clip-path="url(#clip_1)">
    <use xlink:href="#artboard_1" stroke="none" fill="#FFFFFF" />
    <path d="M1481 468L1548 434L1424 160L1363 190C1387 239 1409 293 1430 354L1201 371C1256 247 1310 132 1364 27L1292 0C1243 112 1194 224 1144 335C1130 358 1114 378 1097 395L1125 461C1146 453 1166 446 1187 439C1268 434 1358 427 1459 419C1467 436 1474 452 1481 468ZM568 1002L568 618L689 618L689 784C689 815 677 831 652 831L623 831L631 900L663 899C720 898 749 863 749 794L749 554L568 554L568 464L666 464L666 493L726 493L726 102L533 102L559 16L491 2C485 37 478 70 470 102L356 102L356 493L416 493L416 464L506 464L506 554L339 554L339 883L399 883L399 618L506 618L506 1002L568 1002ZM190 962L133 970L133 609C84 617 51 625 36 632L20 573C43 540 85 472 145 369C91 374 48 379 16 385L4 329C37 286 92 178 171 3L230 32C181 133 130 226 79 311Q127 309.5 181 305C203 266 227 223 253 175L310 208C239 336 169 449 102 548L229 532C222 503 215 471 206 436L262 422Q289 521 313 620L252 636L244 594L190 601L190 962ZM949 99C914 174 861 260 791 357C781 334 768 312 753 289C822 204 879 112 922 11L990 11L980 36C1026 106 1069 177 1110 248L1056 294C1020 222 984 157 949 99ZM416 252L666 252L666 166L416 166L416 252ZM834 971C851 951 866 935 877 924L1003 845L1022 886L1075 849C1046 792 1018 741 991 697L939 726C952 748 964 769 975 788L881 850L881 677L1003 677L1003 698L1067 698L1067 328L933 328L981 296C967 264 953 234 938 206L891 236C902 257 915 287 931 328L814 328L814 829C814 855 806 878 790 897L834 971ZM416 400L666 400L666 314L416 314L416 400ZM881 473L1003 473L1003 387L881 387L881 473ZM1485 997L1485 520L1128 520L1128 983L1200 983L1200 912L1413 912L1413 997L1485 997ZM1003 618L881 618L881 530L1003 530L1003 618ZM1200 844L1413 844L1413 588L1200 588L1200 844ZM244 834L304 821C293 766 280 711 265 654L213 667C225 721 235 777 244 834ZM106 692C93 777 78 853 59 922L0 902C17 851 34 778 49 681L106 692Z" transform="translate(126 103)" id="最佳区域" fill="#FF0088" fill-opacity="0.2" fill-rule="evenodd" stroke="none" />
    <g id="网格">
      <g id="横" transform="translate(0 49)">
        <path d="M0 1L1800 1" id="Line" fill="none" stroke="#FF0088" stroke-width="1" stroke-dasharray="5 2" />
        <path d="M0 1L1800 1" transform="translate(0 50)" id="Line-2" fill="none" stroke="#FF0088" stroke-opacity="0.2" stroke-width="1" stroke-dasharray="3 3" />
        <path d="M0 1L1800 1" transform="translate(0 100)" id="Line-3" fill="none" stroke="#FF0088" stroke-opacity="0.2" stroke-width="1" stroke-dasharray="3 3" />
        <path d="M0 1L1800 1" transform="translate(0 150)" id="Line-4" fill="none" stroke="#FF0088" stroke-opacity="0.2" stroke-width="1" stroke-dasharray="3 3" />
        <path d="M0 1L1800 1" transform="translate(0 200)" id="Line-5" fill="none" stroke="#FF0088" stroke-opacity="0.2" stroke-width="1" stroke-dasharray="3 3" />
        <path d="M0 1L1800 1" transform="translate(0 250)" id="Line-6" fill="none" stroke="#FF0088" stroke-opacity="0.2" stroke-width="1" stroke-dasharray="3 3" />
        <path d="M0 1L1800 1" transform="translate(0 300)" id="Line-7" fill="none" stroke="#FF0088" stroke-opacity="0.2" stroke-width="1" stroke-dasharray="3 3" />
        <path d="M0 1L1800 1" transform="translate(0 350)" id="Line-8" fill="none" stroke="#FF0088" stroke-opacity="0.2" stroke-width="1" stroke-dasharray="3 3" />
        <path d="M0 1L1800 1" transform="translate(0 400)" id="Line-9" fill="none" stroke="#FF0088" stroke-opacity="0.2" stroke-width="1" stroke-dasharray="3 3" />
        <path d="M0 1L1800 1" transform="translate(0 450)" id="Line-10" fill="none" stroke="#FF0088" stroke-opacity="0.2" stroke-width="1" stroke-dasharray="3 3" />
        <path d="M0 1L1800 1" transform="translate(0 500)" id="Line-11" fill="none" stroke="#FF0088" stroke-opacity="0.2" stroke-width="1" stroke-dasharray="3 3" />
        <path d="M0 1L1800 1" transform="translate(0 550)" id="Line-12" fill="none" stroke="#FF0088" stroke-opacity="0.2" stroke-width="1" stroke-dasharray="3 3" />
        <path d="M0 1L1800 1" transform="translate(0 600)" id="Line-13" fill="none" stroke="#FF0088" stroke-opacity="0.2" stroke-width="1" stroke-dasharray="3 3" />
        <path d="M0 1L1800 1" transform="translate(0 650)" id="Line-14" fill="none" stroke="#FF0088" stroke-opacity="0.2" stroke-width="1" stroke-dasharray="3 3" />
        <path d="M0 1L1800 1" transform="translate(0 700)" id="Line-15" fill="none" stroke="#FF0088" stroke-opacity="0.2" stroke-width="1" stroke-dasharray="3 3" />
        <path d="M0 1L1800 1" transform="translate(0 750)" id="Line-16" fill="none" stroke="#FF0088" stroke-opacity="0.2" stroke-width="1" stroke-dasharray="3 3" />
        <path d="M0 1L1800 1" transform="translate(0 800)" id="Line-17" fill="none" stroke="#FF0088" stroke-opacity="0.2" stroke-width="1" stroke-dasharray="3 3" />
        <path d="M0 1L1800 1" transform="translate(0 850)" id="Line-18" fill="none" stroke="#FF0088" stroke-opacity="0.2" stroke-width="1" stroke-dasharray="3 3" />
        <path d="M0 1L1800 1" transform="translate(0 900)" id="Line-19" fill="none" stroke="#FF0088" stroke-width="1" stroke-dasharray="5 2" />
        <path d="M0 1L1800 1" transform="translate(0 950)" id="Line-20" fill="none" stroke="#FF0088" stroke-opacity="0.2" stroke-width="1" stroke-dasharray="3 3" />
        <path d="M0 1L1800 1" transform="translate(0 1000)" id="Line-21" fill="none" stroke="#FF0088" stroke-opacity="0.2" stroke-width="1" stroke-dasharray="3 3" />
        <path d="M0 1L1800 1" transform="translate(0 1050)" id="Line-22" fill="none" stroke="#FF0088" stroke-opacity="0.2" stroke-width="1" stroke-dasharray="3 3" />
        <path d="M0 1L1800 1" transform="translate(0 1100)" id="Line-23" fill="none" stroke="#FF0088" stroke-width="1" stroke-dasharray="5 2" />
      </g>
      <g id="纵" transform="translate(49 0)">
        <path d="M1 0L1 1200" id="Line-24" fill="none" stroke="#FF0088" stroke-opacity="0.2" stroke-width="1" stroke-dasharray="3 3" />
        <path d="M1 0L1 1200" transform="translate(50 0)" id="Line-25" fill="none" stroke="#FF0088" stroke-opacity="0.2" stroke-width="1" stroke-dasharray="3 3" />
        <path d="M1 0L1 1200" transform="translate(100 0)" id="Line-26" fill="none" stroke="#FF0088" stroke-opacity="0.2" stroke-width="1" stroke-dasharray="3 3" />
        <path d="M1 0L1 1200" transform="translate(150 0)" id="Line-27" fill="none" stroke="#FF0088" stroke-opacity="0.2" stroke-width="1" stroke-dasharray="3 3" />
        <path d="M1 0L1 1200" transform="translate(200 0)" id="Line-28" fill="none" stroke="#FF0088" stroke-opacity="0.2" stroke-width="1" stroke-dasharray="3 3" />
        <path d="M1 0L1 1200" transform="translate(250 0)" id="Line-29" fill="none" stroke="#FF0088" stroke-opacity="0.2" stroke-width="1" stroke-dasharray="3 3" />
        <path d="M1 0L1 1200" transform="translate(300 0)" id="Line-30" fill="none" stroke="#FF0088" stroke-opacity="0.2" stroke-width="1" stroke-dasharray="3 3" />
        <path d="M1 0L1 1200" transform="translate(350 0)" id="Line-31" fill="none" stroke="#FF0088" stroke-opacity="0.2" stroke-width="1" stroke-dasharray="3 3" />
        <path d="M1 0L1 1200" transform="translate(400 0)" id="Line-32" fill="none" stroke="#FF0088" stroke-opacity="0.2" stroke-width="1" stroke-dasharray="3 3" />
        <path d="M1 0L1 1200" transform="translate(450 0)" id="Line-33" fill="none" stroke="#FF0088" stroke-opacity="0.2" stroke-width="1" stroke-dasharray="3 3" />
        <path d="M1 0L1 1200" transform="translate(500 0)" id="Line-34" fill="none" stroke="#FF0088" stroke-opacity="0.2" stroke-width="1" stroke-dasharray="3 3" />
        <path d="M1 0L1 1200" transform="translate(550 0)" id="Line-35" fill="none" stroke="#FF0088" stroke-opacity="0.2" stroke-width="1" stroke-dasharray="3 3" />
        <path d="M1 0L1 1200" transform="translate(600 0)" id="Line-36" fill="none" stroke="#FF0088" stroke-opacity="0.2" stroke-width="1" stroke-dasharray="3 3" />
        <path d="M1 0L1 1200" transform="translate(650 0)" id="Line-37" fill="none" stroke="#FF0088" stroke-opacity="0.2" stroke-width="1" stroke-dasharray="3 3" />
        <path d="M1 0L1 1200" transform="translate(700 0)" id="Line-38" fill="none" stroke="#FF0088" stroke-opacity="0.2" stroke-width="1" stroke-dasharray="3 3" />
        <path d="M1 0L1 1200" transform="translate(750 0)" id="Line-39" fill="none" stroke="#FF0088" stroke-opacity="0.2" stroke-width="1" stroke-dasharray="3 3" />
        <path d="M1 0L1 1200" transform="translate(800 0)" id="Line-40" fill="none" stroke="#FF0088" stroke-opacity="0.2" stroke-width="1" stroke-dasharray="3 3" />
        <path d="M1 0L1 1200" transform="translate(850 0)" id="Line-41" fill="none" stroke="#FF0088" stroke-width="1" stroke-dasharray="5 2" />
        <path d="M1 0L1 1200" transform="translate(900 0)" id="Line-42" fill="none" stroke="#FF0088" stroke-opacity="0.2" stroke-width="1" stroke-dasharray="3 3" />
        <path d="M1 0L1 1200" transform="translate(950 0)" id="Line-43" fill="none" stroke="#FF0088" stroke-opacity="0.2" stroke-width="1" stroke-dasharray="3 3" />
        <path d="M1 0L1 1200" transform="translate(1000 0)" id="Line-44" fill="none" stroke="#FF0088" stroke-opacity="0.2" stroke-width="1" stroke-dasharray="3 3" />
        <path d="M1 0L1 1200" transform="translate(1050 0)" id="Line-45" fill="none" stroke="#FF0088" stroke-opacity="0.2" stroke-width="1" stroke-dasharray="3 3" />
        <path d="M1 0L1 1200" transform="translate(1100 0)" id="Line-46" fill="none" stroke="#FF0088" stroke-opacity="0.2" stroke-width="1" stroke-dasharray="3 3" />
        <path d="M1 0L1 1200" transform="translate(1150 0)" id="Line-47" fill="none" stroke="#FF0088" stroke-opacity="0.2" stroke-width="1" stroke-dasharray="3 3" />
        <path d="M1 0L1 1200" transform="translate(1200 0)" id="Line-48" fill="none" stroke="#FF0088" stroke-opacity="0.2" stroke-width="1" stroke-dasharray="3 3" />
        <path d="M1 0L1 1200" transform="translate(1250 0)" id="Line-49" fill="none" stroke="#FF0088" stroke-opacity="0.2" stroke-width="1" stroke-dasharray="3 3" />
        <path d="M1 0L1 1200" transform="translate(1300 0)" id="Line-50" fill="none" stroke="#FF0088" stroke-opacity="0.2" stroke-width="1" stroke-dasharray="3 3" />
        <path d="M1 0L1 1200" transform="translate(1350 0)" id="Line-51" fill="none" stroke="#FF0088" stroke-opacity="0.2" stroke-width="1" stroke-dasharray="3 3" />
        <path d="M1 0L1 1200" transform="translate(1400 0)" id="Line-52" fill="none" stroke="#FF0088" stroke-opacity="0.2" stroke-width="1" stroke-dasharray="3 3" />
        <path d="M1 0L1 1200" transform="translate(1450 0)" id="Line-53" fill="none" stroke="#FF0088" stroke-opacity="0.2" stroke-width="1" stroke-dasharray="3 3" />
        <path d="M1 0L1 1200" transform="translate(1500 0)" id="Line-54" fill="none" stroke="#FF0088" stroke-opacity="0.2" stroke-width="1" stroke-dasharray="3 3" />
        <path d="M1 0L1 1200" transform="translate(1550 0)" id="Line-55" fill="none" stroke="#FF0088" stroke-opacity="0.2" stroke-width="1" stroke-dasharray="3 3" />
        <path d="M1 0L1 1200" transform="translate(1600 0)" id="Line-56" fill="none" stroke="#FF0088" stroke-opacity="0.2" stroke-width="1" stroke-dasharray="3 3" />
        <path d="M1 0L1 1200" transform="translate(1650 0)" id="Line-57" fill="none" stroke="#FF0088" stroke-opacity="0.2" stroke-width="1" stroke-dasharray="3 3" />
        <path d="M1 0L1 1200" transform="translate(1700 0)" id="Line-58" fill="none" stroke="#FF0088" stroke-opacity="0.2" stroke-width="1" stroke-dasharray="3 3" />
      </g>
    </g>
    <g id="基线" fill="#FF0088" transform="translate(0 950)">
      <path d="M24.2227 13.3765Q22.0957 13.7456 20.5313 13.9741Q22.4121 11.3374 24.5566 7.62842L23.2559 6.97803Q22.6055 8.24365 21.999 9.32471Q20.9268 9.36865 19.8809 9.40381Q21.1816 7.34717 22.9922 3.77881L21.6563 3.25146Q19.9336 7.27686 18.2988 9.50928L18.6328 10.7046Q19.8896 10.5815 21.3135 10.5024Q19.8545 12.9282 18.6328 14.2378L18.9141 15.5562Q21.1289 15.187 24.0645 14.73Q24.1172 14.0269 24.2227 13.3765ZM16.8223 17.6128Q17.1914 17.0679 17.7715 16.3472Q14.915 15.3452 12.9375 13.3765L17.5605 13.3765L17.5605 12.2339L14.1152 12.2339L14.1152 6.34521L17.0684 6.34521L17.0684 5.20264L14.1152 5.20264L14.1152 3.3042L12.7969 3.3042L12.7969 5.20264L5.25586 5.20264L5.25586 3.3042L3.9375 3.3042L3.9375 5.20264L0.984375 5.20264L0.984375 6.34521L3.9375 6.34521L3.9375 12.2339L0.439453 12.2339L0.439453 13.3765L4.93066 13.3765Q2.95312 15.3979 0.246094 16.7163Q0.826172 17.3491 1.16016 17.8237Q2.68066 16.9624 4.07813 15.7935L4.07813 16.7515L8.33203 16.7515L8.33203 18.5796L1.45898 18.5796L1.45898 19.7222L16.5234 19.7222L16.5234 18.5796L9.65039 18.5796L9.65039 16.7515L13.8516 16.7515L13.8516 15.7847Q15.2051 16.8481 16.8223 17.6128ZM29.2588 16.5317Q26.8418 18.0962 23.5371 19.2827Q24.0996 19.9858 24.416 20.478Q27.4219 19.3267 29.8389 17.7622Q30.4014 18.7642 31.1133 19.4409Q32.2031 20.4956 33.4863 20.4956Q34.7168 20.4956 35.2266 19.0015Q35.5254 18.0347 35.8242 16.1362Q35.2793 15.978 34.4707 15.6265Q34.3301 16.9976 34.1016 18.1226Q33.9271 18.8481 33.527 19.0074Q33.1614 19.1531 32.6074 18.8257Q31.667 18.1841 30.9902 16.9712Q33.082 15.4243 34.6641 13.5171L33.5215 12.6558Q32.2822 14.3257 30.4189 15.7319Q29.9092 14.3872 29.6104 12.5679L35.666 11.7065L35.5078 10.4585L29.4434 11.311Q29.3027 10.0981 29.2412 8.70947L35.2266 8.01514L35.0684 6.76709L29.1885 7.43506Q29.1182 5.65967 29.0742 3.39209L27.6328 3.39209Q27.7119 5.76514 27.8086 7.59326L24.4863 7.9624L24.6973 9.22803L27.8789 8.86768Q27.9492 10.2651 28.0986 11.4956L24.3105 12.0229L24.5215 13.2886L28.2744 12.7612Q28.6348 14.9409 29.2588 16.5317ZM31.3066 3.44482L30.5508 4.32373Q31.6758 5.11475 33.1348 6.36279L33.9785 5.34326Q32.5547 4.23584 31.3066 3.44482ZM12.7969 7.57568L5.25586 7.57568L5.25586 6.34521L12.7969 6.34521L12.7969 7.57568ZM12.7969 9.896L5.25586 9.896L5.25586 8.66553L12.7969 8.66553L12.7969 9.896ZM12.7969 12.2339L5.25586 12.2339L5.25586 10.9858L12.7969 10.9858L12.7969 12.2339ZM9.65039 13.939L8.33203 13.939L8.33203 15.644L4.25391 15.644Q5.44043 14.6245 6.53906 13.3765L11.3818 13.3765Q12.4189 14.6333 13.6758 15.644L9.65039 15.644L9.65039 13.939ZM24.5566 16.5757Q21.3926 17.3667 18.2988 18.0347L18.6855 19.3706Q21.5684 18.5972 24.5039 17.9116Q24.5039 17.2788 24.5566 16.5757Z" />
    </g>
    <g id="上限" fill="#FF0088" transform="translate(0 49.99994)">
      <path d="M7.34766 18.1753L0.457031 18.1753L0.457031 19.5815L17.5605 19.5815L17.5605 18.1753L8.94727 18.1753L8.94727 10.353L16.1719 10.353L16.1719 8.94678L8.94727 8.94678L8.94727 3.65576L7.34766 3.65576L7.34766 18.1753ZM22.7285 17.5601Q24.9082 17.1558 24.3984 13.7983Q24.2051 12.269 22.7988 10.353Q23.5898 7.94482 24.4512 5.46631L24.4512 4.23584L19.125 4.23584L19.125 20.812L20.4434 20.812L20.4434 5.46631L23.0449 5.46631Q22.0254 8.66553 21.3926 10.5815Q22.7461 12.3394 22.9922 13.7456Q23.3789 16.0308 22.1836 16.2593Q21.498 16.3472 20.5664 16.1187Q20.8125 16.8745 20.9531 17.5952Q21.9375 17.7183 22.7285 17.5601ZM33.8555 4.28857L25.5234 4.28857L25.5234 18.2808Q25.5234 18.9839 24.9961 19.4409L25.998 20.7593Q26.5957 20.2144 26.9473 20.021Q28.4238 19.1421 29.9883 18.3862Q29.918 17.8062 29.9004 16.9976Q28.002 18.0171 26.8242 18.5444L26.8242 12.5679L28.3359 12.5679Q29.7422 17.5601 34.6289 20.1265Q35.1035 19.4761 35.7539 18.8433Q33.4336 17.9116 31.9043 16.3647Q33.416 15.3979 35.3496 14.0444L34.418 12.937Q32.6602 14.4136 31.0781 15.4155Q30.1289 14.1499 29.584 12.5679L32.5547 12.5679L32.5547 13.0425L33.8555 13.0425L33.8555 4.28857ZM26.8242 5.48389L32.5547 5.48389L32.5547 7.82178L26.8242 7.82178L26.8242 5.48389ZM32.5547 8.99951L32.5547 11.3726L26.8242 11.3726L26.8242 8.99951L32.5547 8.99951Z" />
    </g>
    <g id="下限" fill="#FF0088" transform="translate(0 1150)">
      <path d="M22.7285 17.5601Q24.9082 17.1558 24.3984 13.7983Q24.2051 12.269 22.7988 10.353Q23.5898 7.94482 24.4512 5.46631L24.4512 4.23584L19.125 4.23584L19.125 20.812L20.4434 20.812L20.4434 5.46631L23.0449 5.46631Q22.0254 8.66553 21.3926 10.5815Q22.7461 12.3394 22.9922 13.7456Q23.3789 16.0308 22.1836 16.2593Q21.498 16.3472 20.5664 16.1187Q20.8125 16.8745 20.9531 17.5952Q21.9375 17.7183 22.7285 17.5601ZM33.8555 4.28857L25.5234 4.28857L25.5234 18.2808Q25.5234 18.9839 24.9961 19.4409L25.998 20.7593Q26.5957 20.2144 26.9473 20.021Q28.4238 19.1421 29.9883 18.3862Q29.918 17.8062 29.9004 16.9976Q28.002 18.0171 26.8242 18.5444L26.8242 12.5679L28.3359 12.5679Q29.7422 17.5601 34.6289 20.1265Q35.1035 19.4761 35.7539 18.8433Q33.4336 17.9116 31.9043 16.3647Q33.416 15.3979 35.3496 14.0444L34.418 12.937Q32.6602 14.4136 31.0781 15.4155Q30.1289 14.1499 29.584 12.5679L32.5547 12.5679L32.5547 13.0425L33.8555 13.0425L33.8555 4.28857ZM17.543 4.79834L0.457031 4.79834L0.457031 6.23975L7.40039 6.23975L7.40039 20.5483L9 20.5483L9 10.23Q12.7969 12.5503 15.5215 14.6421L16.5586 13.2183Q13.834 11.3198 9.80859 8.94678L9 10.0718L9 6.23975L17.543 6.23975L17.543 4.79834ZM26.8242 5.48389L32.5547 5.48389L32.5547 7.82178L26.8242 7.82178L26.8242 5.48389ZM32.5547 8.99951L32.5547 11.3726L26.8242 11.3726L26.8242 8.99951L32.5547 8.99951Z" />
    </g>
    <g id="中轴" fill="#FF0088" transform="translate(910 1150)">
      <path d="M21.8496 11.2319L19.9863 11.2319Q20.7861 9.21045 21.498 7.22412L24.9961 7.22412L24.9961 6.02881L21.9111 6.02881Q22.3506 4.78076 22.7461 3.55029L21.4102 3.26904Q21.0498 4.56104 20.5664 6.02881L18.4395 6.02881L18.4395 7.22412L20.1621 7.22412Q19.5117 9.09619 18.6855 11.2319L18.6855 12.4272L21.8496 12.4272L21.8496 15.6528Q19.9424 15.8813 18.2285 16.0483L18.3691 17.3667Q20.2061 17.0942 21.8496 16.8745L21.8496 20.6714L23.1152 20.6714L23.1152 16.7075Q24.0205 16.5845 24.873 16.4878Q24.9082 15.9253 24.9961 15.2397Q24.0293 15.3716 23.1152 15.4946L23.1152 12.4272L24.75 12.4272L24.75 11.2319L23.1152 11.2319L23.1152 8.12061L21.8496 8.12061L21.8496 11.2319ZM8.24414 7.13623L1.47656 7.13623L1.47656 15.1519L2.91797 15.1519L2.91797 14.2026L8.24414 14.2026L8.24414 20.7417L9.75586 20.7417L9.75586 14.2026L15.1523 14.2026L15.1523 15.1519L16.5938 15.1519L16.5938 7.13623L9.75586 7.13623L9.75586 3.3042L8.24414 3.3042L8.24414 7.13623ZM29.707 6.8374L25.8047 6.8374L25.8047 20.5132L27.1055 20.5132L27.1055 19.3882L33.5742 19.3882L33.5742 20.5132L34.875 20.5132L34.875 6.8374L30.9727 6.8374L30.9727 3.53271L29.707 3.53271L29.707 6.8374ZM29.707 12.4624L27.1055 12.4624L27.1055 8.06787L29.707 8.06787L29.707 12.4624ZM30.9727 8.06787L33.5742 8.06787L33.5742 12.4624L30.9727 12.4624L30.9727 8.06787ZM8.24414 12.9019L2.91797 12.9019L2.91797 8.43701L8.24414 8.43701L8.24414 12.9019ZM9.75586 8.43701L15.1523 8.43701L15.1523 12.9019L9.75586 12.9019L9.75586 8.43701ZM29.707 18.1577L27.1055 18.1577L27.1055 13.6577L29.707 13.6577L29.707 18.1577ZM33.5742 18.1577L30.9727 18.1577L30.9727 13.6577L33.5742 13.6577L33.5742 18.1577Z" />
    </g>
    <path d="M25 0L50 50L0 50L25 0Z" transform="matrix(1 0 0 -1 875 50)" id="上限" fill="#FF0088" stroke="none" />
    <path d="M25 0L50 50L0 50L25 0Z" transform="translate(875 1150)" id="下限" fill="#FF0088" stroke="none" />
  </g>
</svg>