<?xml version="1.0" encoding="utf-8"?>
<svg width="1800px" height="1400px" viewBox="0 0 1800 1400" version="1.1" xmlns:xlink="http://www.w3.org/1999/xlink" xmlns="http://www.w3.org/2000/svg">
  <desc>Created by MYIL</desc>
  <defs>
    <rect width="1800" height="1400" id="artboard_1" />
    <clipPath id="clip_1">
      <use xlink:href="#artboard_1" clip-rule="evenodd" />
    </clipPath>
  </defs>
  <g id="限界" clip-path="url(#clip_1)">
    <use xlink:href="#artboard_1" stroke="none" fill="#FFFFFF" />
    <path d="M1481 468L1548 434L1424 160L1363 190C1387 239 1409 293 1430 354L1201 371C1256 247 1310 132 1364 27L1292 0C1243 112 1194 224 1144 335C1130 358 1114 378 1097 395L1125 461C1146 453 1166 446 1187 439C1268 434 1358 427 1459 419C1467 436 1474 452 1481 468ZM568 1002L568 618L689 618L689 784C689 815 677 831 652 831L623 831L631 900L663 899C720 898 749 863 749 794L749 554L568 554L568 464L666 464L666 493L726 493L726 102L533 102L559 16L491 2C485 37 478 70 470 102L356 102L356 493L416 493L416 464L506 464L506 554L339 554L339 883L399 883L399 618L506 618L506 1002L568 1002ZM190 962L133 970L133 609C84 617 51 625 36 632L20 573C43 540 85 472 145 369C91 374 48 379 16 385L4 329C37 286 92 178 171 3L230 32C181 133 130 226 79 311Q127 309.5 181 305C203 266 227 223 253 175L310 208C239 336 169 449 102 548L229 532C222 503 215 471 206 436L262 422Q289 521 313 620L252 636L244 594L190 601L190 962ZM949 99C914 174 861 260 791 357C781 334 768 312 753 289C822 204 879 112 922 11L990 11L980 36C1026 106 1069 177 1110 248L1056 294C1020 222 984 157 949 99ZM416 252L666 252L666 166L416 166L416 252ZM834 971C851 951 866 935 877 924L1003 845L1022 886L1075 849C1046 792 1018 741 991 697L939 726C952 748 964 769 975 788L881 850L881 677L1003 677L1003 698L1067 698L1067 328L933 328L981 296C967 264 953 234 938 206L891 236C902 257 915 287 931 328L814 328L814 829C814 855 806 878 790 897L834 971ZM416 400L666 400L666 314L416 314L416 400ZM881 473L1003 473L1003 387L881 387L881 473ZM1485 997L1485 520L1128 520L1128 983L1200 983L1200 912L1413 912L1413 997L1485 997ZM1003 618L881 618L881 530L1003 530L1003 618ZM1200 844L1413 844L1413 588L1200 588L1200 844ZM244 834L304 821C293 766 280 711 265 654L213 667C225 721 235 777 244 834ZM106 692C93 777 78 853 59 922L0 902C17 851 34 778 49 681L106 692Z" transform="translate(126 203)" id="最佳区域" fill="#FF0088" fill-opacity="0.2" fill-rule="evenodd" stroke="none" />
    <g id="网格" transform="translate(0 49)">
      <g id="横">
        <path d="M0 1L1800 1" id="Line" fill="none" stroke="#FF0088" stroke-width="1" />
        <path d="M0 1L1800 1" transform="translate(0 50)" id="Line-2" fill="none" stroke="#FF0088" stroke-opacity="0.2" stroke-width="1" stroke-dasharray="3 3" />
        <path d="M0 1L1800 1" transform="translate(0 100)" id="Line-3" fill="none" stroke="#FF0088" stroke-opacity="0.2" stroke-width="1" stroke-dasharray="3 3" />
        <path d="M0 1L1800 1" transform="translate(0 150)" id="Line-4" fill="none" stroke="#FF0088" stroke-opacity="0.2" stroke-width="1" stroke-dasharray="3 3" />
        <path d="M0 1L1800 1" transform="translate(0 200)" id="Line-5" fill="none" stroke="#FF0088" stroke-opacity="0.2" stroke-width="1" stroke-dasharray="3 3" />
        <path d="M0 1L1800 1" transform="translate(0 250)" id="Line-6" fill="none" stroke="#FF0088" stroke-opacity="0.2" stroke-width="1" stroke-dasharray="3 3" />
        <path d="M0 1L1800 1" transform="translate(0 300)" id="Line-7" fill="none" stroke="#FF0088" stroke-opacity="0.2" stroke-width="1" stroke-dasharray="3 3" />
        <path d="M0 1L1800 1" transform="translate(0 350)" id="Line-8" fill="none" stroke="#FF0088" stroke-opacity="0.2" stroke-width="1" stroke-dasharray="3 3" />
        <path d="M0 1L1800 1" transform="translate(0 400)" id="Line-9" fill="none" stroke="#FF0088" stroke-opacity="0.2" stroke-width="1" stroke-dasharray="3 3" />
        <path d="M0 1L1800 1" transform="translate(0 450)" id="Line-10" fill="none" stroke="#FF0088" stroke-opacity="0.2" stroke-width="1" stroke-dasharray="3 3" />
        <path d="M0 1L1800 1" transform="translate(0 500)" id="Line-11" fill="none" stroke="#FF0088" stroke-opacity="0.2" stroke-width="1" stroke-dasharray="3 3" />
        <path d="M0 1L1800 1" transform="translate(0 550)" id="Line-12" fill="none" stroke="#FF0088" stroke-opacity="0.2" stroke-width="1" stroke-dasharray="3 3" />
        <path d="M0 1L1800 1" transform="translate(0 600)" id="Line-13" fill="none" stroke="#FF0088" stroke-opacity="0.2" stroke-width="1" stroke-dasharray="3 3" />
        <path d="M0 1L1800 1" transform="translate(0 650)" id="Line-14" fill="none" stroke="#FF0088" stroke-opacity="0.2" stroke-width="1" stroke-dasharray="3 3" />
        <path d="M0 1L1800 1" transform="translate(0 700)" id="Line-15" fill="none" stroke="#FF0088" stroke-opacity="0.2" stroke-width="1" stroke-dasharray="3 3" />
        <path d="M0 1L1800 1" transform="translate(0 750)" id="Line-16" fill="none" stroke="#FF0088" stroke-opacity="0.2" stroke-width="1" stroke-dasharray="3 3" />
        <path d="M0 1L1800 1" transform="translate(0 800)" id="Line-17" fill="none" stroke="#FF0088" stroke-opacity="0.2" stroke-width="1" stroke-dasharray="3 3" />
        <path d="M0 1L1800 1" transform="translate(0 850)" id="Line-18" fill="none" stroke="#FF0088" stroke-opacity="0.2" stroke-width="1" stroke-dasharray="3 3" />
        <path d="M0 1L1800 1" transform="translate(0 900)" id="Line-19" fill="none" stroke="#FF0088" stroke-opacity="0.2" stroke-width="1" stroke-dasharray="3 3" />
        <path d="M0 1L1800 1" transform="translate(0 950)" id="Line-20" fill="none" stroke="#FF0088" stroke-opacity="0.2" stroke-width="1" stroke-dasharray="3 3" />
        <path d="M0 1L1800 1" transform="translate(0 1000)" id="Line-21" fill="none" stroke="#FF0088" stroke-width="1" stroke-dasharray="5 2" />
        <path d="M0 1L1800 1" transform="translate(0 1050)" id="Line-22" fill="none" stroke="#FF0088" stroke-opacity="0.2" stroke-width="1" stroke-dasharray="3 3" />
        <path d="M0 1L1800 1" transform="translate(0 1100)" id="Line-23" fill="none" stroke="#FF0088" stroke-opacity="0.2" stroke-width="1" stroke-dasharray="3 3" />
        <path d="M0 1L1800 1" transform="translate(0 1150)" id="Line-24" fill="none" stroke="#FF0088" stroke-opacity="0.2" stroke-width="1" stroke-dasharray="3 3" />
        <path d="M0 1L1800 1" transform="translate(0 1200)" id="Line-25" fill="none" stroke="#FF0088" stroke-opacity="0.2" stroke-width="1" stroke-dasharray="3 3" />
        <path d="M0 1L1800 1" transform="translate(0 1250)" id="Line-26" fill="none" stroke="#FF0088" stroke-opacity="0.2" stroke-width="1" stroke-dasharray="3 3" />
        <path d="M0 1L1800 1" transform="translate(0 1300)" id="Line-27" fill="none" stroke="#FF0088" stroke-width="1" />
      </g>
      <g id="纵" transform="translate(49 0)">
        <path d="M1 0L1 1300" id="Line-24" fill="none" stroke="#FF0088" stroke-opacity="0.2" stroke-width="1" stroke-dasharray="3 3" />
        <path d="M1 0L1 1300" transform="translate(50 0)" id="Line-25" fill="none" stroke="#FF0088" stroke-opacity="0.2" stroke-width="1" stroke-dasharray="3 3" />
        <path d="M1 0L1 1300" transform="translate(100 0)" id="Line-26" fill="none" stroke="#FF0088" stroke-opacity="0.2" stroke-width="1" stroke-dasharray="3 3" />
        <path d="M1 0L1 1300" transform="translate(150 0)" id="Line-27" fill="none" stroke="#FF0088" stroke-opacity="0.2" stroke-width="1" stroke-dasharray="3 3" />
        <path d="M1 0L1 1300" transform="translate(200 0)" id="Line-28" fill="none" stroke="#FF0088" stroke-opacity="0.2" stroke-width="1" stroke-dasharray="3 3" />
        <path d="M1 0L1 1300" transform="translate(250 0)" id="Line-29" fill="none" stroke="#FF0088" stroke-opacity="0.2" stroke-width="1" stroke-dasharray="3 3" />
        <path d="M1 0L1 1300" transform="translate(300 0)" id="Line-30" fill="none" stroke="#FF0088" stroke-opacity="0.2" stroke-width="1" stroke-dasharray="3 3" />
        <path d="M1 0L1 1300" transform="translate(350 0)" id="Line-31" fill="none" stroke="#FF0088" stroke-opacity="0.2" stroke-width="1" stroke-dasharray="3 3" />
        <path d="M1 0L1 1300" transform="translate(400 0)" id="Line-32" fill="none" stroke="#FF0088" stroke-opacity="0.2" stroke-width="1" stroke-dasharray="3 3" />
        <path d="M1 0L1 1300" transform="translate(450 0)" id="Line-33" fill="none" stroke="#FF0088" stroke-opacity="0.2" stroke-width="1" stroke-dasharray="3 3" />
        <path d="M1 0L1 1300" transform="translate(500 0)" id="Line-34" fill="none" stroke="#FF0088" stroke-opacity="0.2" stroke-width="1" stroke-dasharray="3 3" />
        <path d="M1 0L1 1300" transform="translate(550 0)" id="Line-35" fill="none" stroke="#FF0088" stroke-opacity="0.2" stroke-width="1" stroke-dasharray="3 3" />
        <path d="M1 0L1 1300" transform="translate(600 0)" id="Line-36" fill="none" stroke="#FF0088" stroke-opacity="0.2" stroke-width="1" stroke-dasharray="3 3" />
        <path d="M1 0L1 1300" transform="translate(650 0)" id="Line-37" fill="none" stroke="#FF0088" stroke-opacity="0.2" stroke-width="1" stroke-dasharray="3 3" />
        <path d="M1 0L1 1300" transform="translate(700 0)" id="Line-38" fill="none" stroke="#FF0088" stroke-opacity="0.2" stroke-width="1" stroke-dasharray="3 3" />
        <path d="M1 0L1 1300" transform="translate(750 0)" id="Line-39" fill="none" stroke="#FF0088" stroke-opacity="0.2" stroke-width="1" stroke-dasharray="3 3" />
        <path d="M1 0L1 1300" transform="translate(800 0)" id="Line-40" fill="none" stroke="#FF0088" stroke-opacity="0.2" stroke-width="1" stroke-dasharray="3 3" />
        <path d="M1 0L1 1300" transform="translate(850 0)" id="Line-41" fill="none" stroke="#FF0088" stroke-width="1" stroke-dasharray="5 2" />
        <path d="M1 0L1 1300" transform="translate(900 0)" id="Line-42" fill="none" stroke="#FF0088" stroke-opacity="0.2" stroke-width="1" stroke-dasharray="3 3" />
        <path d="M1 0L1 1300" transform="translate(950 0)" id="Line-43" fill="none" stroke="#FF0088" stroke-opacity="0.2" stroke-width="1" stroke-dasharray="3 3" />
        <path d="M1 0L1 1300" transform="translate(1000 0)" id="Line-44" fill="none" stroke="#FF0088" stroke-opacity="0.2" stroke-width="1" stroke-dasharray="3 3" />
        <path d="M1 0L1 1300" transform="translate(1050 0)" id="Line-45" fill="none" stroke="#FF0088" stroke-opacity="0.2" stroke-width="1" stroke-dasharray="3 3" />
        <path d="M1 0L1 1300" transform="translate(1100 0)" id="Line-46" fill="none" stroke="#FF0088" stroke-opacity="0.2" stroke-width="1" stroke-dasharray="3 3" />
        <path d="M1 0L1 1300" transform="translate(1150 0)" id="Line-47" fill="none" stroke="#FF0088" stroke-opacity="0.2" stroke-width="1" stroke-dasharray="3 3" />
        <path d="M1 0L1 1300" transform="translate(1200 0)" id="Line-48" fill="none" stroke="#FF0088" stroke-opacity="0.2" stroke-width="1" stroke-dasharray="3 3" />
        <path d="M1 0L1 1300" transform="translate(1250 0)" id="Line-49" fill="none" stroke="#FF0088" stroke-opacity="0.2" stroke-width="1" stroke-dasharray="3 3" />
        <path d="M1 0L1 1300" transform="translate(1300 0)" id="Line-50" fill="none" stroke="#FF0088" stroke-opacity="0.2" stroke-width="1" stroke-dasharray="3 3" />
        <path d="M1 0L1 1300" transform="translate(1350 0)" id="Line-51" fill="none" stroke="#FF0088" stroke-opacity="0.2" stroke-width="1" stroke-dasharray="3 3" />
        <path d="M1 0L1 1300" transform="translate(1400 0)" id="Line-52" fill="none" stroke="#FF0088" stroke-opacity="0.2" stroke-width="1" stroke-dasharray="3 3" />
        <path d="M1 0L1 1300" transform="translate(1450 0)" id="Line-53" fill="none" stroke="#FF0088" stroke-opacity="0.2" stroke-width="1" stroke-dasharray="3 3" />
        <path d="M1 0L1 1300" transform="translate(1500 0)" id="Line-54" fill="none" stroke="#FF0088" stroke-opacity="0.2" stroke-width="1" stroke-dasharray="3 3" />
        <path d="M1 0L1 1300" transform="translate(1550 0)" id="Line-55" fill="none" stroke="#FF0088" stroke-opacity="0.2" stroke-width="1" stroke-dasharray="3 3" />
        <path d="M1 0L1 1300" transform="translate(1600 0)" id="Line-56" fill="none" stroke="#FF0088" stroke-opacity="0.2" stroke-width="1" stroke-dasharray="3 3" />
        <path d="M1 0L1 1300" transform="translate(1650 0)" id="Line-57" fill="none" stroke="#FF0088" stroke-opacity="0.2" stroke-width="1" stroke-dasharray="3 3" />
        <path d="M1 0L1 1300" transform="translate(1700 0)" id="Line-58" fill="none" stroke="#FF0088" stroke-opacity="0.2" stroke-width="1" stroke-dasharray="3 3" />
      </g>
    </g>
    <g id="基线" fill="#FF0088" transform="translate(0 1050)">
      <path d="M30.654 17.653L31.716 17.887C31.482 20.011 30.96 20.929 29.934 20.929C28.872 20.929 27.972 19.723 27.342 18.211C26.154 19.075 24.552 20.119 23.04 20.695L22.482 19.399C23.886 18.931 25.542 17.923 26.928 16.987C26.658 16.303 26.496 15.403 26.352 14.485L26.334 14.287L26.28 14.017L26.262 13.819C26.262 13.765 26.244 13.711 26.244 13.639L26.208 13.459C26.19 13.297 26.172 13.153 26.154 12.991L23.094 13.621L22.842 12.343L25.92 11.785C25.83 11.065 25.866 10.219 25.812 9.391L23.382 9.877L23.13 8.545L25.65 8.203C25.614 7.645 25.596 7.015 25.578 6.367L25.578 6.187C25.56 6.043 25.56 5.881 25.56 5.737L25.56 5.557L25.542 5.377C25.542 5.035 25.542 4.711 25.524 4.387L26.928 4.387C26.928 4.693 26.91 4.981 26.91 5.287L26.91 5.467L26.892 5.647C26.8883 5.81065 26.8838 5.97354 26.8793 6.13549C26.8622 6.75733 26.8454 7.3655 26.874 7.951L30.654 7.321L30.906 8.581L26.928 9.211C27.108 9.985 27.018 10.777 27.108 11.479L31.176 10.597L31.41 11.893L27.378 12.721C27.396 12.865 27.414 13.027 27.432 13.171L27.45 13.351C27.468 13.441 27.486 13.549 27.486 13.639L27.522 13.819C27.612 14.647 27.72 15.457 27.882 16.123C28.836 15.277 29.736 14.017 30.348 12.973L31.482 13.549C30.726 14.845 29.556 16.357 28.368 17.311C28.836 18.571 29.358 19.507 30.006 19.507C30.51 19.507 30.654 18.841 30.654 17.653ZM10.674 14.035L5.724 14.035C4.77 15.601 3.042 17.419 1.512 18.229L0.846 17.005C1.98 16.501 3.492 15.169 4.338 14.035L0.864 14.035L0.864 12.793L4.104 12.793L4.104 7.303L1.62 7.303L1.62 6.079L4.104 6.079L4.104 4.405L5.292 4.405L5.292 6.079L10.998 6.079L10.998 4.405L12.222 4.405L12.222 6.079L14.67 6.079L14.67 7.303L12.222 7.303L12.222 12.793L15.354 12.793L15.354 14.035L11.97 14.035C12.816 15.097 14.256 16.303 15.426 16.753L14.814 17.995C13.23 17.275 11.574 15.529 10.674 14.035ZM22.59 13.549C22.554 13.873 22.554 14.539 22.59 14.737C18.846 15.619 17.964 15.925 17.802 16.033L17.37 14.773C17.586 14.737 17.964 14.215 18.414 13.621C18.792 13.261 19.404 12.271 20.052 11.191C18.234 11.461 17.784 11.641 17.658 11.731L17.136 10.381C17.37 10.327 17.73 9.931 18.054 9.391C18.378 8.797 19.566 6.583 20.178 4.441L21.438 5.089C21.15 5.863 20.79 6.691 20.394 7.483L20.304 7.645C19.836 8.581 19.314 9.481 18.792 10.255L20.718 9.985C21.078 9.391 21.492 8.635 21.78 8.005L22.86 8.779C22.41 9.607 21.906 10.525 21.366 11.407L21.276 11.569C21.24 11.623 21.204 11.677 21.186 11.731L21.078 11.875L20.988 12.037C20.466 12.847 19.944 13.621 19.44 14.269L22.59 13.549ZM29.322 5.449C29.79 5.773 30.258 6.079 30.51 6.277L29.79 7.177C29.232 6.709 28.134 5.989 27.432 5.539L28.188 4.729C28.458 4.891 28.8 5.107 29.142 5.341L29.322 5.449ZM5.292 7.303L5.292 8.311L10.998 8.311L10.998 7.303L5.292 7.303ZM5.292 9.427L5.292 10.525L10.998 10.525L10.998 9.427L5.292 9.427ZM5.292 11.641L5.292 12.793L10.998 12.793L10.998 11.641L5.292 11.641ZM8.712 19.201L14.256 19.201L14.256 20.443L2.106 20.443L2.106 19.201L7.47 19.201L7.47 17.293L4.194 17.293L4.194 16.069L7.47 16.069L7.47 14.503L8.712 14.503L8.712 16.069L12.078 16.069L12.078 17.293L8.712 17.293L8.712 19.201ZM22.662 16.717L22.86 17.959L17.478 19.759L17.19 18.373C17.91 18.193 19.008 17.869 20.16 17.509L20.34 17.455C20.376 17.437 20.412 17.437 20.448 17.419L20.718 17.329C20.754 17.329 20.79 17.311 20.826 17.293L21.006 17.239C21.042 17.239 21.078 17.221 21.096 17.203L21.294 17.149C21.348 17.131 21.42 17.113 21.474 17.095L21.672 17.041C21.996 16.933 22.338 16.825 22.662 16.717Z" />
    </g>
    <g id="上限" fill="#FF0088" transform="translate(0 49.99994)">
      <path d="M8.244 18.607L15.282 18.607L15.282 20.065L0.954 20.065L0.954 18.607L6.858 18.607L6.858 4.657L8.244 4.657L8.244 9.985L14.22 9.985L14.22 11.461L8.244 11.461L8.244 18.607ZM21.168 6.403L19.026 6.403L19.026 20.947L17.82 20.947L17.82 5.107L21.744 5.107L21.906 5.035L22.77 5.611C22.59 6.169 22.356 6.799 22.14 7.429L22.068 7.609C22.068 7.645 22.05 7.663 22.05 7.699L21.978 7.879C21.96 7.933 21.942 7.987 21.924 8.059L21.852 8.221C21.618 8.905 21.366 9.553 21.15 10.129C22.23 11.515 22.608 12.955 22.608 14.035C22.608 14.899 22.374 15.853 21.906 16.177C21.744 16.357 21.348 16.501 21.042 16.537C20.754 16.591 20.25 16.591 19.926 16.429C19.908 16.267 19.746 15.601 19.584 15.277C19.926 15.313 20.412 15.313 20.646 15.295C20.826 15.277 20.952 15.223 21.078 15.115C21.294 14.935 21.33 14.413 21.33 13.909C21.33 13.009 20.97 11.623 19.872 10.291C20.322 9.085 20.88 7.465 21.168 6.403ZM27.414 18.139C27.414 18.499 27.45 19.201 27.504 19.471C24.39 20.407 23.616 20.767 23.382 20.947L22.68 19.777C22.932 19.651 23.31 19.147 23.31 18.463L23.31 5.143L30.456 5.143L30.456 12.955L27.18 12.955C27.414 13.801 27.63 14.845 27.99 15.601C28.35 15.349 28.764 14.989 29.178 14.647L29.304 14.521C29.754 14.107 30.186 13.711 30.51 13.405L31.374 14.431C30.6 15.133 29.484 16.069 28.638 16.609C29.376 17.797 30.528 19.003 31.644 19.561L30.888 20.875C28.476 19.597 26.838 16.429 26.082 12.955L24.552 12.955L24.552 19.003L27.414 18.139ZM24.552 6.475L24.552 8.383L29.196 8.383L29.196 6.475L24.552 6.475ZM24.552 9.607L24.552 11.677L29.196 11.677L29.196 9.607L24.552 9.607Z" />
    </g>
    <g id="下限" fill="#FF0088" transform="translate(0 1350)">
      <path d="M21.168 6.403L19.026 6.403L19.026 20.947L17.82 20.947L17.82 5.107L21.744 5.107L21.906 5.035L22.77 5.611C22.59 6.169 22.356 6.799 22.14 7.429L22.068 7.609C22.068 7.645 22.05 7.663 22.05 7.699L21.978 7.879C21.96 7.933 21.942 7.987 21.924 8.059L21.852 8.221C21.618 8.905 21.366 9.553 21.15 10.129C22.23 11.515 22.608 12.955 22.608 14.035C22.608 14.899 22.374 15.853 21.906 16.177C21.744 16.357 21.348 16.501 21.042 16.537C20.754 16.591 20.25 16.591 19.926 16.429C19.908 16.267 19.746 15.601 19.584 15.277C19.926 15.313 20.412 15.313 20.646 15.295C20.826 15.277 20.952 15.223 21.078 15.115C21.294 14.935 21.33 14.413 21.33 13.909C21.33 13.009 20.97 11.623 19.872 10.291C20.322 9.085 20.88 7.465 21.168 6.403ZM27.414 18.139C27.414 18.499 27.45 19.201 27.504 19.471C24.39 20.407 23.616 20.767 23.382 20.947L22.68 19.777C22.932 19.651 23.31 19.147 23.31 18.463L23.31 5.143L30.456 5.143L30.456 12.955L27.18 12.955C27.414 13.801 27.63 14.845 27.99 15.601C28.35 15.349 28.764 14.989 29.178 14.647L29.304 14.521C29.754 14.107 30.186 13.711 30.51 13.405L31.374 14.431C30.6 15.133 29.484 16.069 28.638 16.609C29.376 17.797 30.528 19.003 31.644 19.561L30.888 20.875C28.476 19.597 26.838 16.429 26.082 12.955L24.552 12.955L24.552 19.003L27.414 18.139ZM13.446 14.899C12.42 13.963 10.134 12.289 8.46 11.263L8.46 20.947L7.128 20.947L7.128 7.123L1.026 7.123L1.026 5.665L15.228 5.665L15.228 7.123L8.46 7.123L8.46 10.075L8.658 9.769C9.342 10.129 10.152 10.615 10.962 11.137L11.124 11.245C12.402 12.073 13.644 12.973 14.364 13.567L13.446 14.899ZM24.552 6.475L24.552 8.383L29.196 8.383L29.196 6.475L24.552 6.475ZM24.552 9.607L24.552 11.677L29.196 11.677L29.196 9.607L24.552 9.607Z" />
    </g>
    <g id="中轴" fill="#FF0088" transform="translate(910 1350)">
      <path d="M14.562 15.187L8.73 15.187L8.73 20.965L7.398 20.965L7.398 15.205L1.674 15.205L1.674 7.483L7.398 7.483L7.398 4.387L8.73 4.387L8.73 7.483L14.562 7.483L14.562 15.187ZM23.292 16.339L21.618 16.717L21.618 20.893L20.412 20.893L20.412 17.005C20.142 17.077 19.836 17.131 19.548 17.203L19.368 17.257C18.63 17.419 17.892 17.599 17.316 17.725L17.01 16.285C17.658 16.177 18.54 16.033 19.458 15.853L19.656 15.817L19.836 15.781C19.944 15.763 20.034 15.745 20.124 15.727L20.322 15.691C20.358 15.691 20.376 15.691 20.412 15.673L20.412 13.153L18.954 13.153C18.6808 13.153 18.3707 13.1953 18.1496 13.2254C17.9627 13.2509 17.8395 13.2677 17.856 13.243L17.28 12.127C17.532 12.055 17.838 11.443 18.108 10.705C18.252 10.291 18.63 9.049 18.936 7.735L17.172 7.735L17.172 6.421L19.296 6.421C19.368 5.953 19.404 5.485 19.44 5.017L19.458 4.837L19.512 4.405L20.844 4.747C20.754 5.287 20.646 5.935 20.52 6.421L23.148 6.421L23.148 7.735L20.142 7.735L20.088 7.915C20.034 8.167 19.98 8.401 19.908 8.653L19.854 8.833C19.566 9.931 19.26 10.993 18.936 11.857L20.412 11.857L20.412 9.085L21.618 9.085L21.618 11.857L23.148 11.857L23.148 13.153L21.618 13.153L21.618 15.439L23.22 15.079L23.292 16.339ZM28.044 8.059L31.194 8.059L31.194 20.191L23.616 20.191L23.616 8.059L26.784 8.059L26.784 4.405L28.044 4.405L28.044 8.059ZM3.024 8.905L3.024 13.819L7.398 13.819L7.398 8.905L3.024 8.905ZM8.73 8.905L8.73 13.783L13.158 13.783L13.158 8.905L8.73 8.905ZM24.858 9.391L24.858 13.081L26.784 13.081L26.784 9.391L24.858 9.391ZM27.99 9.391L27.99 13.081L29.916 13.081L29.916 9.391L27.99 9.391ZM24.858 14.377L24.858 18.877L26.784 18.877L26.784 14.377L24.858 14.377ZM27.99 14.377L27.99 18.877L29.916 18.877L29.916 14.377L27.99 14.377Z" />
    </g>
    <path d="M25 0L50 50L0 50L25 0Z" transform="matrix(1 0 0 -1 875 50)" id="上限" fill="#FF0088" stroke="none" />
    <path d="M25 0L50 50L0 50L25 0Z" transform="translate(875 1350)" id="下限" fill="#FF0088" stroke="none" />
  </g>
</svg>